<?xml version="1.0" encoding="UTF-8"?>
<svg xmlns="http://www.w3.org/2000/svg" width="360" height="46.4" xmlns:xlink="http://www.w3.org/1999/xlink" version="1.1" viewBox="0 0 360 46.4">
  <defs>
    <linearGradient id="_名称未設定グラデーション_10" data-name="名称未設定グラデーション 10" x1="0" y1="20.6" x2="356.8" y2="20.6" gradientTransform="translate(1 -1)" gradientUnits="userSpaceOnUse">
      <stop offset="0" stop-color="#b881b6"/>
      <stop offset=".1" stop-color="#ba7dad"/>
      <stop offset=".4" stop-color="#bf7395"/>
      <stop offset=".6" stop-color="#c9646e"/>
      <stop offset=".9" stop-color="#d64e39"/>
      <stop offset="1" stop-color="#d94a2e"/>
    </linearGradient>
  </defs>
  <!-- Generator: Adobe Illustrator 28.7.1, SVG Export Plug-In . SVG Version: 1.2.0 Build 142)  -->
  <g>
    <g id="layer">
      <g>
        <g>
          <path d="M1.2,25.7c-.2-1.9-.2-4.9,0-6.8.7-6.1,5.7-10.4,12.9-10.4s12.3,4.2,12.9,10.4c.2,1.9.2,4.9,0,6.8-.7,6.1-5.7,10.4-12.9,10.4S1.9,31.8,1.2,25.7ZM14,33.1c5.4,0,9-3.1,9.5-7.5.2-2,.2-4.5,0-6.5-.5-4.5-4.2-7.5-9.5-7.5s-9,3.1-9.5,7.5c-.2,2-.2,4.5,0,6.5.5,4.5,4.2,7.5,9.5,7.5Z" fill="#231815"/>
          <path d="M60.5,19.2v15c0,1-.6,1.6-1.7,1.6s-1.7-.6-1.7-1.6v-14.9c0-5.2-2.9-7.8-8.9-7.8s-6.9.9-8.9,2v20.7c0,1-.6,1.6-1.7,1.6s-1.7-.6-1.7-1.6V12.8c0-.8.2-1.2.8-1.5,1.9-1.1,6.2-2.8,11.4-2.8,7.8,0,12.2,3.9,12.2,10.7Z" fill="#231815"/>
          <path d="M69.5,25.8c-.2-1.9-.2-4.9,0-6.8.7-6.1,5.7-10.4,12.7-10.4s12.1,4.5,12.1,10.7v1.9c0,2.2-.3,2.5-2.7,2.5h-19c0,.7,0,1.3.1,1.9.5,4.5,4.1,7.4,9.6,7.4s5.1-.5,7.4-1.4c.7-.3,1.1-.4,1.7-.4s1.4.5,1.4,1.3c0,.8-.7,1.3-1.7,1.7-2.6,1.2-5.5,1.7-8.9,1.7-7.3,0-12.3-4.1-13-10.3ZM90.9,21c.6-6.1-3.2-9.4-8.7-9.4s-8.9,3.1-9.3,7.5c0,.6-.1,1.2-.1,1.9h18.2Z" fill="#231815"/>
          <path d="M128,36c-4.2,0-7.6-.9-10.2-2.8-.7-.5-.9-1-.9-1.4,0-.6.6-1.4,1.6-1.4s1,.2,1.3.5c1.6,1.1,4,2.2,8.2,2.2s7-2,7-4.8-1.5-3.5-5.1-4.3l-4.6-1c-5-1.1-7.6-3.3-7.6-6.9s4-7.6,10.2-7.6,6.9,1.3,8.4,2.3c.7.5,1,.9,1,1.5s-.6,1.5-1.6,1.5-1-.2-1.6-.6c-1.3-.9-3.4-1.8-6-1.8-4.4,0-7,1.6-7,4.5s1.1,3.3,5,4.1l4.5.9c5.4,1.1,7.8,3.6,7.8,7.1s-3.9,8-10.3,8Z" fill="#231815"/>
          <path d="M145.6,25.8c-.2-1.9-.2-4.9,0-6.8.7-6.1,5.7-10.4,12.7-10.4s12.1,4.5,12.1,10.7v1.9c0,2.2-.3,2.5-2.7,2.5h-19c0,.7,0,1.3.1,1.9.5,4.5,4.1,7.4,9.6,7.4s5.1-.5,7.4-1.4c.7-.3,1.1-.4,1.7-.4s1.4.5,1.4,1.3c0,.8-.7,1.3-1.7,1.7-2.6,1.2-5.5,1.7-8.9,1.7-7.3,0-12.3-4.1-13-10.3ZM167,21c.6-6.1-3.2-9.4-8.7-9.4s-8.9,3.1-9.3,7.5c0,.6-.1,1.2-.1,1.9h18.2Z" fill="#231815"/>
          <path d="M203.5,19.2v15c0,1-.6,1.6-1.7,1.6s-1.7-.6-1.7-1.6v-14.9c0-5.2-2.9-7.8-8.9-7.8s-6.9.9-8.9,2v20.7c0,1-.6,1.6-1.7,1.6s-1.7-.6-1.7-1.6V12.8c0-.8.2-1.2.8-1.5,1.9-1.1,6.2-2.8,11.4-2.8,7.8,0,12.2,3.9,12.2,10.7Z" fill="#231815"/>
          <path d="M217,4.7v4.2h9.3c1.4,0,2,.5,2,1.5s-.7,1.5-2,1.5h-9.3v16.5c0,3.1,1.6,4.6,4.9,4.6s3.5-.4,4.6-.8c.5-.2.8-.3,1.2-.3.8,0,1.5.6,1.5,1.4s-.5,1.2-1.5,1.6c-1.8.6-3.6,1-6,1-5.1,0-8.2-2.8-8.2-7.4V4.7c0-1,.6-1.6,1.7-1.6s1.7.6,1.7,1.6Z" fill="#231815"/>
          <path d="M234.7,25.8c-.2-1.9-.2-4.9,0-6.8.7-6.1,5.7-10.4,12.7-10.4s12.1,4.5,12.1,10.7v1.9c0,2.2-.3,2.5-2.7,2.5h-19c0,.7,0,1.3.1,1.9.5,4.5,4.1,7.4,9.6,7.4s5.1-.5,7.4-1.4c.7-.3,1.1-.4,1.7-.4s1.4.5,1.4,1.3c0,.8-.7,1.3-1.7,1.7-2.6,1.2-5.5,1.7-8.9,1.7-7.3,0-12.3-4.1-13-10.3ZM256.1,21c.6-6.1-3.2-9.4-8.7-9.4s-8.9,3.1-9.3,7.5c0,.6-.1,1.2-.1,1.9h18.2Z" fill="#231815"/>
          <path d="M292.6,19.2v15c0,1-.6,1.6-1.7,1.6s-1.7-.6-1.7-1.6v-14.9c0-5.2-2.9-7.8-8.9-7.8s-6.9.9-8.9,2v20.7c0,1-.6,1.6-1.7,1.6s-1.7-.6-1.7-1.6V12.8c0-.8.2-1.2.8-1.5,1.9-1.1,6.2-2.8,11.4-2.8,7.8,0,12.2,3.9,12.2,10.7Z" fill="#231815"/>
          <path d="M305,25.8c.5,4.3,3.7,7.3,9.3,7.3s6.8-1.9,8.2-4.9c.2-.4.5-1.2,1.7-1.2s1.6.6,1.6,1.4-.1.9-.6,1.8c-1.7,3.4-5.7,5.8-10.9,5.8-7.3,0-12-4.1-12.7-10.1-.2-2-.2-5.2,0-7.3.6-6,5.3-10.1,12.7-10.1s9.2,2.4,10.9,5.8c.5.9.6,1.5.6,1.8,0,.8-.6,1.4-1.6,1.4s-1.5-.8-1.7-1.2c-1.7-3.2-4.3-4.9-8.2-4.9-5.5,0-8.8,2.9-9.3,7.3-.2,2.1-.2,4.9,0,7Z" fill="#231815"/>
          <path d="M333,25.8c-.2-1.9-.2-4.9,0-6.8.7-6.1,5.7-10.4,12.7-10.4s12.1,4.5,12.1,10.7v1.9c0,2.2-.3,2.5-2.7,2.5h-19c0,.7,0,1.3.1,1.9.5,4.5,4.1,7.4,9.6,7.4s5.1-.5,7.4-1.4c.7-.3,1.1-.4,1.7-.4s1.4.5,1.4,1.3c0,.8-.7,1.3-1.7,1.7-2.6,1.2-5.5,1.7-8.9,1.7-7.3,0-12.3-4.1-13-10.3ZM354.4,21c.6-6.1-3.2-9.4-8.7-9.4s-8.9,3.1-9.3,7.5c0,.6-.1,1.2-.1,1.9h18.2Z" fill="#231815"/>
        </g>
        <g>
          <path d="M1.2,25.7c-.2-1.9-.2-4.9,0-6.8.7-6.1,5.7-10.4,12.9-10.4s12.3,4.2,12.9,10.4c.2,1.9.2,4.9,0,6.8-.7,6.1-5.7,10.4-12.9,10.4S1.9,31.8,1.2,25.7ZM14,33.1c5.4,0,9-3.1,9.5-7.5.2-2,.2-4.5,0-6.5-.5-4.5-4.2-7.5-9.5-7.5s-9,3.1-9.5,7.5c-.2,2-.2,4.5,0,6.5.5,4.5,4.2,7.5,9.5,7.5Z" fill="url(#_名称未設定グラデーション_10)"/>
          <path d="M60.5,19.2v15c0,1-.6,1.6-1.7,1.6s-1.7-.6-1.7-1.6v-14.9c0-5.2-2.9-7.8-8.9-7.8s-6.9.9-8.9,2v20.7c0,1-.6,1.6-1.7,1.6s-1.7-.6-1.7-1.6V12.8c0-.8.2-1.2.8-1.5,1.9-1.1,6.2-2.8,11.4-2.8,7.8,0,12.2,3.9,12.2,10.7Z" fill="url(#_名称未設定グラデーション_10)"/>
          <path d="M69.5,25.8c-.2-1.9-.2-4.9,0-6.8.7-6.1,5.7-10.4,12.7-10.4s12.1,4.5,12.1,10.7v1.9c0,2.2-.3,2.5-2.7,2.5h-19c0,.7,0,1.3.1,1.9.5,4.5,4.1,7.4,9.6,7.4s5.1-.5,7.4-1.4c.7-.3,1.1-.4,1.7-.4s1.4.5,1.4,1.3c0,.8-.7,1.3-1.7,1.7-2.6,1.2-5.5,1.7-8.9,1.7-7.3,0-12.3-4.1-13-10.3ZM90.9,21c.6-6.1-3.2-9.4-8.7-9.4s-8.9,3.1-9.3,7.5c0,.6-.1,1.2-.1,1.9h18.2Z" fill="url(#_名称未設定グラデーション_10)"/>
          <path d="M128,36c-4.2,0-7.6-.9-10.2-2.8-.7-.5-.9-1-.9-1.4,0-.6.6-1.4,1.6-1.4s1,.2,1.3.5c1.6,1.1,4,2.2,8.2,2.2s7-2,7-4.8-1.5-3.5-5.1-4.3l-4.6-1c-5-1.1-7.6-3.3-7.6-6.9s4-7.6,10.2-7.6,6.9,1.3,8.4,2.3c.7.5,1,.9,1,1.5s-.6,1.5-1.6,1.5-1-.2-1.6-.6c-1.3-.9-3.4-1.8-6-1.8-4.4,0-7,1.6-7,4.5s1.1,3.3,5,4.1l4.5.9c5.4,1.1,7.8,3.6,7.8,7.1s-3.9,8-10.3,8Z" fill="url(#_名称未設定グラデーション_10)"/>
          <path d="M145.6,25.8c-.2-1.9-.2-4.9,0-6.8.7-6.1,5.7-10.4,12.7-10.4s12.1,4.5,12.1,10.7v1.9c0,2.2-.3,2.5-2.7,2.5h-19c0,.7,0,1.3.1,1.9.5,4.5,4.1,7.4,9.6,7.4s5.1-.5,7.4-1.4c.7-.3,1.1-.4,1.7-.4s1.4.5,1.4,1.3c0,.8-.7,1.3-1.7,1.7-2.6,1.2-5.5,1.7-8.9,1.7-7.3,0-12.3-4.1-13-10.3ZM167,21c.6-6.1-3.2-9.4-8.7-9.4s-8.9,3.1-9.3,7.5c0,.6-.1,1.2-.1,1.9h18.2Z" fill="url(#_名称未設定グラデーション_10)"/>
          <path d="M203.5,19.2v15c0,1-.6,1.6-1.7,1.6s-1.7-.6-1.7-1.6v-14.9c0-5.2-2.9-7.8-8.9-7.8s-6.9.9-8.9,2v20.7c0,1-.6,1.6-1.7,1.6s-1.7-.6-1.7-1.6V12.8c0-.8.2-1.2.8-1.5,1.9-1.1,6.2-2.8,11.4-2.8,7.8,0,12.2,3.9,12.2,10.7Z" fill="url(#_名称未設定グラデーション_10)"/>
          <path d="M217,4.7v4.2h9.3c1.4,0,2,.5,2,1.5s-.7,1.5-2,1.5h-9.3v16.5c0,3.1,1.6,4.6,4.9,4.6s3.5-.4,4.6-.8c.5-.2.8-.3,1.2-.3.8,0,1.5.6,1.5,1.4s-.5,1.2-1.5,1.6c-1.8.6-3.6,1-6,1-5.1,0-8.2-2.8-8.2-7.4V4.7c0-1,.6-1.6,1.7-1.6s1.7.6,1.7,1.6Z" fill="url(#_名称未設定グラデーション_10)"/>
          <path d="M234.7,25.8c-.2-1.9-.2-4.9,0-6.8.7-6.1,5.7-10.4,12.7-10.4s12.1,4.5,12.1,10.7v1.9c0,2.2-.3,2.5-2.7,2.5h-19c0,.7,0,1.3.1,1.9.5,4.5,4.1,7.4,9.6,7.4s5.1-.5,7.4-1.4c.7-.3,1.1-.4,1.7-.4s1.4.5,1.4,1.3c0,.8-.7,1.3-1.7,1.7-2.6,1.2-5.5,1.7-8.9,1.7-7.3,0-12.3-4.1-13-10.3ZM256.1,21c.6-6.1-3.2-9.4-8.7-9.4s-8.9,3.1-9.3,7.5c0,.6-.1,1.2-.1,1.9h18.2Z" fill="url(#_名称未設定グラデーション_10)"/>
          <path d="M292.6,19.2v15c0,1-.6,1.6-1.7,1.6s-1.7-.6-1.7-1.6v-14.9c0-5.2-2.9-7.8-8.9-7.8s-6.9.9-8.9,2v20.7c0,1-.6,1.6-1.7,1.6s-1.7-.6-1.7-1.6V12.8c0-.8.2-1.2.8-1.5,1.9-1.1,6.2-2.8,11.4-2.8,7.8,0,12.2,3.9,12.2,10.7Z" fill="url(#_名称未設定グラデーション_10)"/>
          <path d="M305,25.8c.5,4.3,3.7,7.3,9.3,7.3s6.8-1.9,8.2-4.9c.2-.4.5-1.2,1.7-1.2s1.6.6,1.6,1.4-.1.9-.6,1.8c-1.7,3.4-5.7,5.8-10.9,5.8-7.3,0-12-4.1-12.7-10.1-.2-2-.2-5.2,0-7.3.6-6,5.3-10.1,12.7-10.1s9.2,2.4,10.9,5.8c.5.9.6,1.5.6,1.8,0,.8-.6,1.4-1.6,1.4s-1.5-.8-1.7-1.2c-1.7-3.2-4.3-4.9-8.2-4.9-5.5,0-8.8,2.9-9.3,7.3-.2,2.1-.2,4.9,0,7Z" fill="url(#_名称未設定グラデーション_10)"/>
          <path d="M333,25.8c-.2-1.9-.2-4.9,0-6.8.7-6.1,5.7-10.4,12.7-10.4s12.1,4.5,12.1,10.7v1.9c0,2.2-.3,2.5-2.7,2.5h-19c0,.7,0,1.3.1,1.9.5,4.5,4.1,7.4,9.6,7.4s5.1-.5,7.4-1.4c.7-.3,1.1-.4,1.7-.4s1.4.5,1.4,1.3c0,.8-.7,1.3-1.7,1.7-2.6,1.2-5.5,1.7-8.9,1.7-7.3,0-12.3-4.1-13-10.3ZM354.4,21c.6-6.1-3.2-9.4-8.7-9.4s-8.9,3.1-9.3,7.5c0,.6-.1,1.2-.1,1.9h18.2Z" fill="url(#_名称未設定グラデーション_10)"/>
        </g>
      </g>
    </g>
  </g>
</svg>